<svg xmlns="http://www.w3.org/2000/svg" xmlns:xlink="http://www.w3.org/1999/xlink" width="1769pt" height="727pt" viewBox="0.00 0.00 1769.33 726.97">
<g id="graph0" class="graph" transform="scale(1 1) rotate(0) translate(4 722.97)">
<title>DFA</title>
<polygon fill="darkgrey" stroke="none" points="-4,4 -4,-722.97 1765.33,-722.97 1765.33,4 -4,4"/>
<!-- S1 -->
<g id="node1" class="node">
<title>S1</title>
<ellipse fill="black" stroke="black" cx="34.95" cy="-641.17" rx="34.95" ry="34.95"/>
<text text-anchor="middle" x="34.95" y="-645.37" font-family="Times,serif" font-size="14.00" fill="white">S1</text>
<text text-anchor="middle" x="34.95" y="-628.57" font-family="Times,serif" font-size="14.00" fill="white">(start)</text>
</g>
<!-- S7 -->
<g id="node6" class="node">
<title>S7</title>
<ellipse fill="darkblue" stroke="black" cx="224.41" cy="-568.17" rx="53.17" ry="53.17"/>
<text text-anchor="middle" x="224.41" y="-589.17" font-family="Times,serif" font-size="14.00" fill="white">S7</text>
<text text-anchor="middle" x="224.41" y="-572.37" font-family="Times,serif" font-size="14.00" fill="white"> Wait </text>
<text text-anchor="middle" x="224.41" y="-555.57" font-family="Times,serif" font-size="14.00" fill="white">TURN </text>
<text text-anchor="middle" x="224.41" y="-538.77" font-family="Times,serif" font-size="14.00" fill="white">ESTE</text>
</g>
<!-- S1&#45;&gt;S7 -->
<g id="edge2" class="edge">
<title>S1-&gt;S7</title>
<path fill="none" stroke="black" stroke-width="3" d="M67.75,-628.79C93.23,-618.87 129.76,-604.64 161.02,-592.47"/>
<polygon fill="black" stroke="black" stroke-width="3" points="162.23,-595.76 170.28,-588.87 159.69,-589.23 162.23,-595.76"/>
<text text-anchor="middle" x="120.57" y="-626.8" font-family="Times,serif" font-size="24.00">TURN</text>
</g>
<!-- S11 -->
<g id="node10" class="node">
<title>S11</title>
<ellipse fill="lightblue" stroke="black" cx="1708.16" cy="-602.17" rx="53.17" ry="53.17"/>
<text text-anchor="middle" x="1708.16" y="-623.17" font-family="Times,serif" font-size="14.00">S11</text>
<text text-anchor="middle" x="1708.16" y="-606.37" font-family="Times,serif" font-size="14.00"> Wait </text>
<text text-anchor="middle" x="1708.16" y="-589.57" font-family="Times,serif" font-size="14.00">MOVE </text>
<text text-anchor="middle" x="1708.16" y="-572.77" font-family="Times,serif" font-size="14.00">ESTE</text>
</g>
<!-- S1&#45;&gt;S11 -->
<g id="edge1" class="edge">
<title>S1-&gt;S11</title>
<path fill="none" stroke="black" stroke-width="3" d="M67.47,-654.69C104.2,-669.2 167.06,-690.17 223.41,-690.17 223.41,-690.17 223.41,-690.17 1507.88,-690.17 1560.15,-690.17 1614.07,-664.52 1652.62,-640.92"/>
<polygon fill="black" stroke="black" stroke-width="3" points="1654.4,-643.93 1660.98,-635.63 1650.66,-638.02 1654.4,-643.93"/>
<text text-anchor="middle" x="851.59" y="-697.37" font-family="Times,serif" font-size="24.00">MOVE</text>
</g>
<!-- S3 -->
<g id="node2" class="node">
<title>S3</title>
<ellipse fill="blue" stroke="yellow" cx="1506.88" cy="-550.17" rx="37.44" ry="37.44"/>
<ellipse fill="none" stroke="yellow" cx="1506.88" cy="-550.17" rx="41.44" ry="41.44"/>
<text text-anchor="middle" x="1506.88" y="-554.37" font-family="Times,serif" font-size="14.00" fill="white">S3</text>
<text text-anchor="middle" x="1506.88" y="-537.57" font-family="Times,serif" font-size="14.00" fill="white"> ESTE</text>
</g>
<!-- S3&#45;&gt;S7 -->
<g id="edge3" class="edge">
<title>S3-&gt;S7</title>
<path fill="none" stroke="blue" stroke-width="3" d="M1476.55,-578.89C1467.69,-586.53 1457.61,-594.28 1447.45,-600.17 1404.1,-625.33 1391.39,-638.17 1341.27,-638.17 373.63,-638.17 373.63,-638.17 373.63,-638.17 340.34,-638.17 306.53,-623.56 279.62,-607.69"/>
<polygon fill="blue" stroke="blue" stroke-width="3" points="281.58,-604.79 271.24,-602.49 277.9,-610.74 281.58,-604.79"/>
<text text-anchor="middle" x="851.59" y="-645.37" font-family="Times,serif" font-size="24.00">TURN</text>
</g>
<!-- S3&#45;&gt;S11 -->
<g id="edge4" class="edge">
<title>S3-&gt;S11</title>
<path fill="none" stroke="blue" stroke-width="3" d="M1543.27,-570.61C1550.7,-574.25 1558.62,-577.67 1566.32,-580.17 1589.9,-587.85 1616.6,-592.89 1640.36,-596.17"/>
<polygon fill="blue" stroke="blue" stroke-width="3" points="1639.86,-599.64 1650.22,-597.43 1640.74,-592.69 1639.86,-599.64"/>
<text text-anchor="middle" x="1601.65" y="-602.55" font-family="Times,serif" font-size="24.00">MOVE</text>
</g>
<!-- S4 -->
<g id="node3" class="node">
<title>S4</title>
<ellipse fill="green" stroke="yellow" cx="374.63" cy="-174.17" rx="33.05" ry="33.05"/>
<ellipse fill="none" stroke="yellow" cx="374.63" cy="-174.17" rx="37.05" ry="37.05"/>
<text text-anchor="middle" x="374.63" y="-178.37" font-family="Times,serif" font-size="14.00" fill="white">S4</text>
<text text-anchor="middle" x="374.63" y="-161.57" font-family="Times,serif" font-size="14.00" fill="white"> SUR</text>
</g>
<!-- S8 -->
<g id="node7" class="node">
<title>S8</title>
<ellipse fill="darkgreen" stroke="black" cx="571.51" cy="-222.17" rx="53.17" ry="53.17"/>
<text text-anchor="middle" x="571.51" y="-243.17" font-family="Times,serif" font-size="14.00" fill="white">S8</text>
<text text-anchor="middle" x="571.51" y="-226.37" font-family="Times,serif" font-size="14.00" fill="white"> Wait </text>
<text text-anchor="middle" x="571.51" y="-209.57" font-family="Times,serif" font-size="14.00" fill="white">TURN </text>
<text text-anchor="middle" x="571.51" y="-192.77" font-family="Times,serif" font-size="14.00" fill="white">SUR</text>
</g>
<!-- S4&#45;&gt;S8 -->
<g id="edge10" class="edge">
<title>S4-&gt;S8</title>
<path fill="none" stroke="green" stroke-width="3" d="M406.43,-193.89C413.8,-197.86 421.82,-201.6 429.67,-204.17 453.14,-211.87 479.82,-216.3 503.59,-218.84"/>
<polygon fill="green" stroke="green" stroke-width="3" points="503.16,-222.32 513.45,-219.77 503.82,-215.35 503.16,-222.32"/>
<text text-anchor="middle" x="465.01" y="-225.39" font-family="Times,serif" font-size="24.00">TURN</text>
</g>
<!-- S12 -->
<g id="node11" class="node">
<title>S12</title>
<ellipse fill="lightgreen" stroke="black" cx="571.51" cy="-53.17" rx="53.17" ry="53.17"/>
<text text-anchor="middle" x="571.51" y="-74.17" font-family="Times,serif" font-size="14.00">S12</text>
<text text-anchor="middle" x="571.51" y="-57.37" font-family="Times,serif" font-size="14.00"> Wait </text>
<text text-anchor="middle" x="571.51" y="-40.57" font-family="Times,serif" font-size="14.00">MOVE </text>
<text text-anchor="middle" x="571.51" y="-23.77" font-family="Times,serif" font-size="14.00">SUR</text>
</g>
<!-- S4&#45;&gt;S12 -->
<g id="edge11" class="edge">
<title>S4-&gt;S12</title>
<path fill="none" stroke="green" stroke-width="3" d="M380.2,-137.16C386.09,-107.05 399.46,-66.41 429.67,-46.37 451.97,-31.6 480.89,-30.67 506.72,-34.47"/>
<polygon fill="green" stroke="green" stroke-width="3" points="505.76,-37.85 516.22,-36.19 507.01,-30.96 505.76,-37.85"/>
<text text-anchor="middle" x="465.01" y="-53.57" font-family="Times,serif" font-size="24.00">MOVE</text>
</g>
<!-- S5 -->
<g id="node4" class="node">
<title>S5</title>
<ellipse fill="red" stroke="yellow" cx="1131.85" cy="-347.17" rx="44.58" ry="44.58"/>
<ellipse fill="none" stroke="yellow" cx="1131.85" cy="-347.17" rx="48.58" ry="48.58"/>
<text text-anchor="middle" x="1131.85" y="-351.37" font-family="Times,serif" font-size="14.00" fill="white">S5</text>
<text text-anchor="middle" x="1131.85" y="-334.57" font-family="Times,serif" font-size="14.00" fill="white"> OESTE</text>
</g>
<!-- S9 -->
<g id="node8" class="node">
<title>S9</title>
<ellipse fill="darkred" stroke="black" cx="1340.27" cy="-295.17" rx="53.17" ry="53.17"/>
<text text-anchor="middle" x="1340.27" y="-316.17" font-family="Times,serif" font-size="14.00" fill="white">S9</text>
<text text-anchor="middle" x="1340.27" y="-299.37" font-family="Times,serif" font-size="14.00" fill="white"> Wait </text>
<text text-anchor="middle" x="1340.27" y="-282.57" font-family="Times,serif" font-size="14.00" fill="white">TURN </text>
<text text-anchor="middle" x="1340.27" y="-265.77" font-family="Times,serif" font-size="14.00" fill="white">OESTE</text>
</g>
<!-- S5&#45;&gt;S9 -->
<g id="edge17" class="edge">
<title>S5-&gt;S9</title>
<path fill="none" stroke="red" stroke-width="3" d="M1180.46,-342.38C1206.91,-338.99 1240.22,-333.54 1269.1,-325.17 1272.1,-324.31 1275.14,-323.34 1278.19,-322.31"/>
<polygon fill="red" stroke="red" stroke-width="3" points="1279.08,-325.71 1287.26,-318.98 1276.67,-319.14 1279.08,-325.71"/>
<text text-anchor="middle" x="1233.77" y="-346.97" font-family="Times,serif" font-size="24.00">TURN</text>
</g>
<!-- S13 -->
<g id="node12" class="node">
<title>S13</title>
<ellipse fill="lightpink" stroke="black" cx="1340.27" cy="-431.17" rx="53.17" ry="53.17"/>
<text text-anchor="middle" x="1340.27" y="-452.17" font-family="Times,serif" font-size="14.00">S13</text>
<text text-anchor="middle" x="1340.27" y="-435.37" font-family="Times,serif" font-size="14.00"> Wait </text>
<text text-anchor="middle" x="1340.27" y="-418.57" font-family="Times,serif" font-size="14.00">MOVE </text>
<text text-anchor="middle" x="1340.27" y="-401.77" font-family="Times,serif" font-size="14.00">OESTE</text>
</g>
<!-- S5&#45;&gt;S13 -->
<g id="edge18" class="edge">
<title>S5-&gt;S13</title>
<path fill="none" stroke="red" stroke-width="3" d="M1177.55,-364.4C1210.36,-377.08 1252.03,-393.3 1269.1,-400.37 1272.05,-401.6 1275.06,-402.86 1278.09,-404.14"/>
<polygon fill="red" stroke="red" stroke-width="3" points="1276.7,-407.36 1287.27,-408.08 1279.46,-400.92 1276.7,-407.36"/>
<text text-anchor="middle" x="1233.77" y="-407.57" font-family="Times,serif" font-size="24.00">MOVE</text>
</g>
<!-- S6 -->
<g id="node5" class="node">
<title>S6</title>
<ellipse fill="purple" stroke="yellow" cx="747.47" cy="-395.17" rx="46.78" ry="46.78"/>
<ellipse fill="none" stroke="yellow" cx="747.47" cy="-395.17" rx="50.78" ry="50.78"/>
<text text-anchor="middle" x="747.47" y="-399.37" font-family="Times,serif" font-size="14.00" fill="white">S6</text>
<text text-anchor="middle" x="747.47" y="-382.57" font-family="Times,serif" font-size="14.00" fill="white"> NORTE</text>
</g>
<!-- S10 -->
<g id="node9" class="node">
<title>S10</title>
<ellipse fill="indigo" stroke="black" cx="958.09" cy="-343.17" rx="53.17" ry="53.17"/>
<text text-anchor="middle" x="958.09" y="-364.17" font-family="Times,serif" font-size="14.00" fill="white">S10</text>
<text text-anchor="middle" x="958.09" y="-347.37" font-family="Times,serif" font-size="14.00" fill="white"> Wait </text>
<text text-anchor="middle" x="958.09" y="-330.57" font-family="Times,serif" font-size="14.00" fill="white">TURN </text>
<text text-anchor="middle" x="958.09" y="-313.77" font-family="Times,serif" font-size="14.00" fill="white">NORTE</text>
</g>
<!-- S6&#45;&gt;S10 -->
<g id="edge24" class="edge">
<title>S6-&gt;S10</title>
<path fill="none" stroke="purple" stroke-width="3" d="M798.46,-390.25C825.07,-386.87 858.16,-381.47 886.92,-373.17 889.92,-372.31 892.96,-371.35 896.01,-370.32"/>
<polygon fill="purple" stroke="purple" stroke-width="3" points="896.9,-373.72 905.08,-366.99 894.49,-367.15 896.9,-373.72"/>
<text text-anchor="middle" x="851.59" y="-394.51" font-family="Times,serif" font-size="24.00">TURN</text>
</g>
<!-- S14 -->
<g id="node13" class="node">
<title>S14</title>
<ellipse fill="thistle" stroke="black" cx="958.09" cy="-467.17" rx="53.17" ry="53.17"/>
<text text-anchor="middle" x="958.09" y="-488.17" font-family="Times,serif" font-size="14.00">S14</text>
<text text-anchor="middle" x="958.09" y="-471.37" font-family="Times,serif" font-size="14.00"> Wait </text>
<text text-anchor="middle" x="958.09" y="-454.57" font-family="Times,serif" font-size="14.00">MOVE </text>
<text text-anchor="middle" x="958.09" y="-437.77" font-family="Times,serif" font-size="14.00">NORTE</text>
</g>
<!-- S6&#45;&gt;S14 -->
<g id="edge25" class="edge">
<title>S6-&gt;S14</title>
<path fill="none" stroke="purple" stroke-width="3" d="M773.4,-438.92C784.43,-453.92 798.88,-468.99 816.25,-477.17 839.71,-488.22 867.82,-488.43 892.73,-484.88"/>
<polygon fill="purple" stroke="purple" stroke-width="3" points="893.25,-488.34 902.5,-483.18 892.05,-481.44 893.25,-488.34"/>
<text text-anchor="middle" x="851.59" y="-494.11" font-family="Times,serif" font-size="24.00">MOVE</text>
</g>
<!-- S7&#45;&gt;S3 -->
<g id="edge8" class="edge">
<title>S7-&gt;S3</title>
<path fill="none" stroke="darkblue" stroke-width="3" d="M277.47,-574.69C283.57,-575.28 289.71,-575.8 295.58,-576.17 589.01,-595.07 663.05,-586.17 957.09,-586.17 957.09,-586.17 957.09,-586.17 1341.27,-586.17 1379.5,-586.17 1421.59,-576.8 1453.64,-567.61"/>
<polygon fill="darkblue" stroke="darkblue" stroke-width="3" points="1454.23,-571.09 1462.81,-564.88 1452.23,-564.38 1454.23,-571.09"/>
<text text-anchor="middle" x="851.59" y="-594" font-family="Times,serif" font-size="24.00">360</text>
</g>
<!-- S7&#45;&gt;S4 -->
<g id="edge5" class="edge">
<title>S7-&gt;S4</title>
<path fill="none" stroke="darkblue" stroke-width="3" d="M244.03,-518.67C272.72,-442.4 327.38,-297.11 355.67,-221.92"/>
<polygon fill="darkblue" stroke="darkblue" stroke-width="3" points="358.79,-223.57 359.03,-212.97 352.24,-221.1 358.79,-223.57"/>
<text text-anchor="middle" x="307.58" y="-378.37" font-family="Times,serif" font-size="24.00">90</text>
</g>
<!-- S7&#45;&gt;S5 -->
<g id="edge6" class="edge">
<title>S7-&gt;S5</title>
<path fill="none" stroke="darkblue" stroke-width="3" d="M277.78,-565.56C356.83,-561.61 511.38,-553.89 642.69,-547.37 724.59,-543.31 940.08,-569.88 1011.27,-529.17 1058.36,-502.25 1090.23,-448.34 1109.14,-406.15"/>
<polygon fill="darkblue" stroke="darkblue" stroke-width="3" points="1112.31,-407.65 1113.04,-397.08 1105.88,-404.89 1112.31,-407.65"/>
<text text-anchor="middle" x="660.69" y="-554.57" font-family="Times,serif" font-size="24.00">180</text>
</g>
<!-- S7&#45;&gt;S6 -->
<g id="edge7" class="edge">
<title>S7-&gt;S6</title>
<path fill="none" stroke="darkblue" stroke-width="3" d="M271.67,-542.97C279.54,-539.11 287.71,-535.36 295.58,-532.17 430.46,-477.6 595.55,-432.73 683.78,-410.42"/>
<polygon fill="darkblue" stroke="darkblue" stroke-width="3" points="684.53,-413.84 693.37,-408.01 682.82,-407.05 684.53,-413.84"/>
<text text-anchor="middle" x="465.01" y="-490.23" font-family="Times,serif" font-size="24.00">270</text>
</g>
<!-- S8&#45;&gt;S3 -->
<g id="edge14" class="edge">
<title>S8-&gt;S3</title>
<path fill="none" stroke="darkgreen" stroke-width="3" d="M622.54,-205.73C656.98,-195.85 704.02,-185.17 746.47,-185.17 746.47,-185.17 746.47,-185.17 1341.27,-185.17 1475.11,-185.17 1500.74,-391.62 1505.23,-493.99"/>
<polygon fill="darkgreen" stroke="darkgreen" stroke-width="3" points="1501.72,-493.9 1505.58,-503.77 1508.72,-493.65 1501.72,-493.9"/>
<text text-anchor="middle" x="1047.27" y="-192.37" font-family="Times,serif" font-size="24.00">270</text>
</g>
<!-- S8&#45;&gt;S4 -->
<g id="edge15" class="edge">
<title>S8-&gt;S4</title>
<path fill="none" stroke="darkgreen" stroke-width="3" d="M530.97,-187.11C521.54,-180.65 511.07,-174.85 500.34,-171.37 476.57,-163.67 448.89,-163.48 425.65,-165.6"/>
<polygon fill="darkgreen" stroke="darkgreen" stroke-width="3" points="425.52,-162.09 415.99,-166.7 426.32,-169.04 425.52,-162.09"/>
<text text-anchor="middle" x="465.01" y="-178.57" font-family="Times,serif" font-size="24.00">360</text>
</g>
<!-- S8&#45;&gt;S5 -->
<g id="edge12" class="edge">
<title>S8-&gt;S5</title>
<path fill="none" stroke="darkgreen" stroke-width="3" d="M625.11,-219.98C736.32,-216.22 991.16,-212.59 1065.27,-254.17 1080.61,-262.78 1093.22,-276.66 1103.13,-291.1"/>
<polygon fill="darkgreen" stroke="darkgreen" stroke-width="3" points="1100.1,-292.84 1108.4,-299.41 1106.01,-289.09 1100.1,-292.84"/>
<text text-anchor="middle" x="851.59" y="-228.69" font-family="Times,serif" font-size="24.00">90</text>
</g>
<!-- S8&#45;&gt;S6 -->
<g id="edge13" class="edge">
<title>S8-&gt;S6</title>
<path fill="none" stroke="darkgreen" stroke-width="3" d="M624.54,-229.03C643.29,-233.66 663.55,-241.41 678.69,-254.37 702.31,-274.61 718.36,-304.95 728.9,-332.29"/>
<polygon fill="darkgreen" stroke="darkgreen" stroke-width="3" points="725.55,-333.34 732.23,-341.56 732.14,-330.97 725.55,-333.34"/>
<text text-anchor="middle" x="660.69" y="-261.57" font-family="Times,serif" font-size="24.00">180</text>
</g>
<!-- S9&#45;&gt;S3 -->
<g id="edge20" class="edge">
<title>S9-&gt;S3</title>
<path fill="none" stroke="darkred" stroke-width="3" d="M1372.05,-337.93C1379.19,-348.09 1386.68,-358.95 1393.45,-369.17 1422.96,-413.73 1454.97,-465.64 1477.26,-502.41"/>
<polygon fill="darkred" stroke="darkred" stroke-width="3" points="1474.2,-504.12 1482.37,-510.87 1480.19,-500.5 1474.2,-504.12"/>
<text text-anchor="middle" x="1429.45" y="-460" font-family="Times,serif" font-size="24.00">180</text>
</g>
<!-- S9&#45;&gt;S4 -->
<g id="edge21" class="edge">
<title>S9-&gt;S4</title>
<path fill="none" stroke="darkred" stroke-width="3" d="M1308.85,-252.28C1272.61,-206.71 1207.52,-141.17 1132.85,-141.17 570.51,-141.17 570.51,-141.17 570.51,-141.17 520.46,-141.17 464.17,-151.89 425.01,-161.11"/>
<polygon fill="darkred" stroke="darkred" stroke-width="3" points="424.19,-157.7 415.3,-163.47 425.84,-164.51 424.19,-157.7"/>
<text text-anchor="middle" x="851.59" y="-148.37" font-family="Times,serif" font-size="24.00">270</text>
</g>
<!-- S9&#45;&gt;S5 -->
<g id="edge22" class="edge">
<title>S9-&gt;S5</title>
<path fill="none" stroke="darkred" stroke-width="3" d="M1287.63,-285.39C1260.33,-282.36 1226.71,-282.12 1198.44,-292.37 1191.11,-295.03 1184.04,-298.9 1177.41,-303.38"/>
<polygon fill="darkred" stroke="darkred" stroke-width="3" points="1175.53,-300.42 1169.65,-309.23 1179.74,-306.01 1175.53,-300.42"/>
<text text-anchor="middle" x="1233.77" y="-299.57" font-family="Times,serif" font-size="24.00">360</text>
</g>
<!-- S9&#45;&gt;S6 -->
<g id="edge19" class="edge">
<title>S9-&gt;S6</title>
<path fill="none" stroke="darkred" stroke-width="3" d="M1288.53,-282.2C1282.03,-280.95 1275.43,-279.89 1269.1,-279.17 1108.26,-261.07 1061.86,-241.58 904.92,-281.17 861.67,-292.08 852.2,-301.77 816.25,-328.17 808.19,-334.1 800.15,-340.97 792.57,-348"/>
<polygon fill="darkred" stroke="darkred" stroke-width="3" points="790.27,-345.36 785.49,-354.82 795.12,-350.4 790.27,-345.36"/>
<text text-anchor="middle" x="1047.27" y="-266.46" font-family="Times,serif" font-size="24.00">90</text>
</g>
<!-- S10&#45;&gt;S3 -->
<g id="edge26" class="edge">
<title>S10-&gt;S3</title>
<path fill="none" stroke="indigo" stroke-width="3" d="M1003.23,-372.2C1049.99,-401.81 1126.81,-447.26 1198.44,-475.17 1283.98,-508.51 1388.84,-530.28 1451.36,-541.38"/>
<polygon fill="indigo" stroke="indigo" stroke-width="3" points="1450.62,-544.81 1461.07,-543.07 1451.82,-537.91 1450.62,-544.81"/>
<text text-anchor="middle" x="1233.77" y="-505.99" font-family="Times,serif" font-size="24.00">90</text>
</g>
<!-- S10&#45;&gt;S4 -->
<g id="edge27" class="edge">
<title>S10-&gt;S4</title>
<path fill="none" stroke="indigo" stroke-width="3" d="M905.84,-331.65C899.49,-330.39 893.06,-329.2 886.92,-328.17 724.17,-301.13 678.68,-323 518.34,-284.17 477.47,-274.28 462.95,-276.87 429.67,-251.17 418.35,-242.43 408.45,-230.66 400.33,-218.95"/>
<polygon fill="indigo" stroke="indigo" stroke-width="3" points="403.36,-217.2 394.98,-210.72 397.49,-221.01 403.36,-217.2"/>
<text text-anchor="middle" x="660.69" y="-316.36" font-family="Times,serif" font-size="24.00">180</text>
</g>
<!-- S10&#45;&gt;S5 -->
<g id="edge28" class="edge">
<title>S10-&gt;S5</title>
<path fill="none" stroke="indigo" stroke-width="3" d="M1011.56,-344.4C1029.46,-344.81 1049.66,-345.28 1068.28,-345.72"/>
<polygon fill="indigo" stroke="indigo" stroke-width="3" points="1068.18,-349.22 1078.26,-345.95 1068.35,-342.22 1068.18,-349.22"/>
<text text-anchor="middle" x="1047.27" y="-352.73" font-family="Times,serif" font-size="24.00">270</text>
</g>
<!-- S10&#45;&gt;S6 -->
<g id="edge29" class="edge">
<title>S10-&gt;S6</title>
<path fill="none" stroke="indigo" stroke-width="3" d="M905.51,-333.57C878.23,-330.6 844.61,-330.34 816.25,-340.37 809.03,-342.93 802.02,-346.61 795.41,-350.88"/>
<polygon fill="indigo" stroke="indigo" stroke-width="3" points="793.38,-348.03 787.32,-356.72 797.48,-353.71 793.38,-348.03"/>
<text text-anchor="middle" x="851.59" y="-347.57" font-family="Times,serif" font-size="24.00">360</text>
</g>
<!-- S11&#45;&gt;S3 -->
<g id="edge9" class="edge">
<title>S11-&gt;S3</title>
<path fill="none" stroke="lightblue" stroke-width="3" d="M1669.47,-565.51C1659.63,-558.09 1648.53,-551.35 1636.98,-547.37 1613.4,-539.26 1585.93,-538.72 1562.4,-540.72"/>
<polygon fill="lightblue" stroke="lightblue" stroke-width="3" points="1562.04,-537.24 1552.48,-541.8 1562.8,-544.19 1562.04,-537.24"/>
<text text-anchor="middle" x="1601.65" y="-554.57" font-family="Times,serif" font-size="24.00">{1-10}</text>
</g>
<!-- S12&#45;&gt;S4 -->
<g id="edge16" class="edge">
<title>S12-&gt;S4</title>
<path fill="none" stroke="lightgreen" stroke-width="3" d="M520.25,-68.9C480.6,-81.37 431.64,-96.94 429.67,-98.37 418.34,-106.65 408.48,-118.04 400.39,-129.47"/>
<polygon fill="lightgreen" stroke="lightgreen" stroke-width="3" points="397.7,-127.2 395.12,-137.48 403.54,-131.05 397.7,-127.2"/>
<text text-anchor="middle" x="465.01" y="-105.57" font-family="Times,serif" font-size="24.00">{1-10}</text>
</g>
<!-- S13&#45;&gt;S5 -->
<g id="edge23" class="edge">
<title>S13-&gt;S5</title>
<path fill="none" stroke="pink" stroke-width="3" d="M1287.61,-440.73C1259.84,-443.4 1225.78,-442.56 1198.44,-429.17 1185.3,-422.74 1173.95,-412.29 1164.56,-400.96"/>
<polygon fill="pink" stroke="pink" stroke-width="3" points="1167.42,-398.93 1158.58,-393.08 1161.84,-403.16 1167.42,-398.93"/>
<text text-anchor="middle" x="1233.77" y="-449.14" font-family="Times,serif" font-size="24.00">{1-10}</text>
</g>
<!-- S14&#45;&gt;S6 -->
<g id="edge30" class="edge">
<title>S14-&gt;S6</title>
<path fill="none" stroke="thistle" stroke-width="3" d="M907.1,-450.91C880.12,-442.03 846.29,-430.72 816.25,-420.17 813.83,-419.32 811.36,-418.45 808.87,-417.56"/>
<polygon fill="thistle" stroke="thistle" stroke-width="3" points="810.31,-414.36 799.71,-414.26 807.93,-420.94 810.31,-414.36"/>
<text text-anchor="middle" x="851.59" y="-450.93" font-family="Times,serif" font-size="24.00">{1-10}</text>
</g>
</g>
</svg>